
<global>
amp_veltrack=0
ampeg_release=0.50
</global>

<group>
group_label=Group_0-45
lpc_hicc1=42
lpc_locc1=0

<region>
hikey=a3
hivel=127
lokey=g#3
loop_end=283978
loop_mode=loop_continuous
loop_start=81254
loop_xfade=24269
lovel=1
lpc=2BUZQoCEgcIC0VRBx2UGQSBgTEHMVxrBxOWuQGMzTcAGhVxAm/MywNHqqL8sigS/13DKv05XYD/sfi1ANERFv7Baur6Akt++BROVviHoxD8N2RG/8JmNP/LAisByeUhA
lpc_rms=-36.16
pitch_keycenter=a3
sample=Alto_trill_wholetone_PP_A3.opus
</region>

<region>
hikey=a4
hivel=127
lokey=g#4
loop_end=280454
loop_mode=loop_continuous
loop_start=80246
loop_xfade=23968
lovel=1
lpc=Ua24QcyxH8LB/6FBJHgowc9KPkFvAA/B8MocQUnWpcD5X0W/9yR5QNcrjb8hqYDA5LuXQOEnK8DUizHAIJ2eQGoJK8DYsts/jekCPNMKhj49iei/ZGtaP6J1Mb73+VE/
lpc_rms=-35.21
pitch_keycenter=a4
sample=Alto_trill_wholetone_PP_A4.opus
</region>

<region>
hikey=a5
hivel=127
lokey=g#5
loop_end=284248
loop_mode=loop_continuous
loop_start=81332
loop_xfade=24292
lovel=1
lpc=MljjQU5hFcIUTLhAX0CswELNh0EXmH3ADgM6QMNGn8Any1xAYxI7QCwHxD+7aRzBv4zGQMXrVcD0P+A/3HqjQLwk1b8tZt8/jFljP+sNp7sTiybAvmKuvw5eFcAMN7JA
lpc_rms=-23.15
offset=8201
pitch_keycenter=a5
sample=Alto_trill_wholetone_PP_A5.opus
</region>

<region>
hikey=b3
hivel=127
lokey=a#3
loop_end=280038
loop_mode=loop_continuous
loop_start=80127
loop_xfade=23932
lovel=1
lpc=p6A1QoU7pcLtmPdB8qjuv243k0F6ZBLB7L4BwI/0i0B4rc0/viaDwI33D8ALaJy/nmPWPGK2HkBXBQRA8+nov+lymL/UKLY/6GVQPlszzD/Ypqm/Fswhv1tKX8BvB3RA
lpc_rms=-34.76
pitch_keycenter=b3
sample=Alto_trill_wholetone_PP_B3.opus
</region>

<region>
hikey=b4
hivel=127
lokey=a#4
loop_end=277074
loop_mode=loop_continuous
loop_start=79279
loop_xfade=23679
lovel=1
lpc=F77fQbiWVMIAivhB8ztawSBUdUEcFTDBveofQfXYvsCINj1AYOEVwGFQXD+gNKfAJ0DtQF3DpsDe4tm8xRGtQHqzhsC6eUtAEKsSv+ey3b8UcbE+3gHkP1+JocAEJ4lA
lpc_rms=-34.63
pitch_keycenter=b4
sample=Alto_trill_wholetone_PP_B4.opus
</region>

<region>
hikey=b5
hivel=127
lokey=a#5
loop_end=272203
loop_mode=loop_continuous
loop_start=77885
loop_xfade=23263
lovel=1
lpc=e66oQXWdjcFMcUPAoFG6wFi4I0H6jIo/f+m5QH1ZMsBpABBATh2PwHF50EAOzLPA/F3KQMk8rr8tGIm/+eeQQHOjfT8O0AA/abvdP3FGcb9KALS/jPXAv1ZRA7+5Pa1A
lpc_rms=-24.91
offset=6087
pitch_keycenter=b5
sample=Alto_trill_wholetone_PP_B5.opus
</region>

<region>
hikey=c#4
hivel=127
lokey=c4
loop_end=278236
loop_mode=loop_continuous
loop_start=79611
loop_xfade=23778
lovel=1
lpc=CMBqQmZb28J4gERChX1YwcLawUFnI43ANbjwvku8fL/+w/o/0VYawKyhN8Am5zbAJIyNQMexCcDdN6y/IhsAQHhaOb9sXipAJN7oP3o4079724U/yAuWPuPsQMHNih9B
lpc_rms=-31.93
pitch_keycenter=c#4
sample=Alto_trill_wholetone_PP_C#4.opus
</region>

<region>
hikey=c#5
hivel=127
lokey=c5
loop_end=279442
loop_mode=loop_continuous
loop_start=79957
loop_xfade=23881
lovel=1
lpc=1wx9QReHwsFtuylB3d0CwYwaHkFO0MTAHATCQG6rwr/nSJi+WsizvRHxC0CBjbrAVUqVQAwF1791hja/GnANQMxO9L/oc9M/txqkPgOUND9rtCjApZfUP2uJ179nVfY/
lpc_rms=-35.82
pitch_keycenter=c#5
sample=Alto_trill_wholetone_PP_C#5.opus
</region>

<region>
hikey=c#6
hivel=127
lokey=c6
loop_end=282904
loop_mode=loop_continuous
loop_start=80947
loop_xfade=24177
lovel=1
lpc=CwmSQZZ1YsFwpkPApfEawDrhzEDNn40/4YuKQLZJnMDmMYE/6aUBQBXZ7UCB5a3AkohQQAcfgMCzA+Y+/1mnQLrEQT4MNdQ95M/Xva0RqD/4FTzAIRBbP7PlBz7dWCRA
lpc_rms=-23.58
offset=11672
pitch_keycenter=C#6
sample=Alto_trill_wholetone_PP_C#6.opus
</region>

<region>
hikey=d#4
hivel=127
lokey=d4
loop_end=279917
loop_mode=loop_continuous
loop_start=80092
loop_xfade=23922
lovel=1
lpc=HQYaQgHXhcJJnbpBvQ5WwN6UakEWnJnAMLRYP9lGST79Frc/SGNYwK6IHkCBorvAVjmGP45H0T85o6I9J98IQOEtnL+1GKw/1qxzv5IVfb/picI/xyP9vyeDLcBsj4NA
lpc_rms=-33.23
pitch_keycenter=d#4
sample=Alto_trill_wholetone_PP_D#4.opus
</region>

<region>
hikey=d#5
hivel=127
lokey=d5
loop_end=274651
loop_mode=loop_continuous
loop_start=78586
loop_xfade=23472
lovel=1
lpc=e43oQWVjNMLAo4RB8zIWwePHgUFRs8TAI2OeQLbfhr9qDhPA0ptDv4dlaUAH7/zAkRzlQBf9e8DxBiVAh5FiQKQwQMCu6UBArYk3wMilhD/MK8K/RmaYP2wxDsCSt0pA
lpc_rms=-28.88
offset=1026
pitch_keycenter=d#5
sample=Alto_trill_wholetone_PP_D#5.opus
</region>

<region>
hikey=f4
hivel=127
lokey=e4
loop_end=282340
loop_mode=loop_continuous
loop_start=80786
loop_xfade=24129
lovel=1
lpc=d6E5Qm31wsJZmoFCQy37wYnaEUJIlc7BMQpRQUJ3isDr8UXAR7brQCSatsCzy4fAPefEQE0fy8A2uUBAw8b8QMbX5sAtTxhAGkvAvqcL4r+8iOQ/Kj4kvYfMXcDO+E1A
lpc_rms=-28.76
offset=945
pitch_keycenter=f4
sample=Alto_trill_wholetone_PP_F4.opus
</region>

<region>
hikey=f5
hivel=127
lokey=e5
loop_end=284146
loop_mode=loop_continuous
loop_start=81302
loop_xfade=24283
lovel=1
lpc=vMQDQjTGQcIGp4ZBVSAzwcMitkGFtirBrhLqQNDMu8AR/2/AhEelQLGzaUAd1uXA07TRQExVjsCt51+/SigOQfIWosCZpIo94lfdvkdavD8H19K/3P3LP3KUGkAlz6O/
lpc_rms=-25.10
offset=8255
pitch_keycenter=f5
sample=Alto_trill_wholetone_PP_F5.opus
</region>

<region>
hivel=127
key=g3
loop_end=283153
loop_mode=loop_continuous
loop_start=81018
loop_xfade=24199
lovel=1
lpc=K/tIQldspsK1XIBBv5mfQKpxkEGi4ic/OOokwOdv5L84eAI/Hem7vzIK17/6OeS/rZWCv+AQDj8diLA/LiCzP0MI6T41uvk+wftfP6TkCL9RVJy/9qGBv5Tyob+fxg9A
lpc_rms=-36.22
sample=Alto_trill_wholetone_PP_G3.opus
</region>

<region>
hikey=g4
hivel=127
lokey=f#4
loop_end=284325
loop_mode=loop_continuous
loop_start=81354
loop_xfade=24299
lovel=1
lpc=kVxiQjVy6cKW+ohCQQW1wd0c5kHjhUzBf3aZQBscXcArTGjA9YjiPl2kikDx3kzB8ddLQTbMjcBXFuC+PzQEQSAjFMHngTZAW6cMQDm1a8BukMI+cyI/PQWijz8LOQY/
lpc_rms=-29.75
pitch_keycenter=g4
sample=Alto_trill_wholetone_PP_G4.opus
</region>

<region>
hikey=g5
hivel=127
lokey=f#5
loop_end=283942
loop_mode=loop_continuous
loop_start=81244
loop_xfade=24266
lovel=1
lpc=0CsSQp2mVcKbTWdBxSEOwUFs0UFTeEDBpVkTQQ5IJ8Fbddi+uGGAQII6bEBHzwDBGFC7QP3RJD8DBXLAsgURQamJF8EonglAWSaCv/bFkEBq0DU/NxP/vRlBKcAgp6E+
lpc_rms=-23.61
offset=500
pitch_keycenter=g5
sample=Alto_trill_wholetone_PP_G5.opus
</region>
</group>

<group>
group_label=Group_46-90
lpc_hicc1=84
lpc_locc1=43

<region>
hikey=a3
hivel=127
lokey=g#3
loop_end=283796
loop_mode=loop_continuous
loop_start=81202
loop_xfade=24254
lovel=1
lpc=5RgSQsyGmsJKfCNC8dnKv0HuW0Fi4obBtFAdQWAopMAk/JfADWa7QJZFTUAkseTA8jnGQFESw8DNnS1AeWsevzUMGUD5izPAzIubQOZAzsAsMSVAQQApQCWIb8D07MY/
lpc_rms=-29.29
pitch_keycenter=a3
sample=Alto_trill_wholetone_MF_A3.opus
</region>

<region>
hikey=a4
hivel=127
lokey=g#4
loop_end=285829
loop_mode=loop_continuous
loop_start=81784
loop_xfade=24427
lovel=1
lpc=3+3RQX7CVsIWBRpCfCK7wRnTyUHPfKTBaAqUQbvIT8H9ZA/AmUYcQUtvr8AWS46+t8icQHwVqcAWSYq/6VCzQJVfj8BJohZAdHKKv7dTDEDy8pfAjx7lQGQ1usCUZxBA
lpc_rms=-27.00
pitch_keycenter=a4
sample=Alto_trill_wholetone_MF_A4.opus
</region>

<region>
hikey=a5
hivel=127
lokey=g#5
loop_end=282113
loop_mode=loop_continuous
loop_start=80721
loop_xfade=24110
lovel=1
lpc=3CqaQWEjysGdKpVAA9Cbv3X5DEGWLoHAXiCSQPlIIcAQ9UHAw3nbP4YXqEDKY67AZTigQN/nZr6QRPi/+rwyP6wOKcBl45lACmUZvpb5fD8orj3AGQdqP1RBgL90aQBA
lpc_rms=-20.63
offset=445
pitch_keycenter=a5
sample=Alto_trill_wholetone_MF_A5.opus
</region>

<region>
hikey=b3
hivel=127
lokey=a#3
loop_end=276092
loop_mode=loop_continuous
loop_start=78998
loop_xfade=23595
lovel=1
lpc=JIIdQjttusKOc41CqwTqwbbqAEIDRujBmPqZQd0lgsHgKalAgBCsQGCjX8BKZsrAxX0nQUf/CcHUNeA/vN74QLgZGMHQapdACImKvzAfvj+TUB3AWkI8QBmEfMAYjxFA
lpc_rms=-28.63
offset=2348
pitch_keycenter=b3
sample=Alto_trill_wholetone_MF_B3.opus
</region>

<region>
hikey=b4
hivel=127
lokey=a#4
loop_end=285544
loop_mode=loop_continuous
loop_start=81703
loop_xfade=24403
lovel=1
lpc=Ie8TQsAmpcIfI4FC8j8RwnFhIEKXRQvCuPDcQRDZw8ECcTNB66LHvcPtQEALIjnBLveEQWrJg8HWJOBAnZ+rQOtr58DbFcVAhIyrwCaCgEATf2nAi21pQK4FnsAob3BA
lpc_rms=-22.08
offset=1014
pitch_keycenter=b4
sample=Alto_trill_wholetone_MF_B4.opus
</region>

<region>
hikey=b5
hivel=127
lokey=a#5
loop_end=270858
loop_mode=loop_continuous
loop_start=77500
loop_xfade=23148
lovel=1
lpc=vLVZQZPzSMGdjeW/g5xGvxsPzUAmGFy+8nIyQGszKMBwORq/G8RZP1eOakBe9Zi/jAs8QHGLqr8kQW7A57WDQBzFnz+G48k/jxdVPwSBgL9aCw7AeW4IPvSxSz90qwhA
lpc_rms=-23.55
offset=985
pitch_keycenter=b5
sample=Alto_trill_wholetone_MF_B5.opus
</region>

<region>
hikey=c#4
hivel=127
lokey=c4
loop_end=283763
loop_mode=loop_continuous
loop_start=81193
loop_xfade=24251
lovel=1
lpc=jBQ+QnyD8cL5vM9Cl7o4wqQwHkIYuwbCYoGVQU4bW8EiNBvA2mAHQT2zn0AsvznBRuGXQQo8ycGq4zRBzK3TQB1cW8E52R9B34mSv+mRbcCe6KBAZCXXPTMNz8CVBH5A
lpc_rms=-25.66
offset=4930
pitch_keycenter=c#4
sample=Alto_trill_wholetone_MF_C#4.opus
</region>

<region>
hikey=c#5
hivel=127
lokey=c5
loop_end=283212
loop_mode=loop_continuous
loop_start=81035
loop_xfade=24204
lovel=1
lpc=g8WJQcsNAsJtZa1BzHRFwSYzYUEUbUvBsjU4Qf1Q5sCxbEi+crmcQMfzJsDtCSfAr22YQDxyJsBW/9W/4HB8QFmdZ8CV0FBAorSov6Bwg0ARRsbAJTOYQGbYt8BrbodA
lpc_rms=-26.89
offset=1702
pitch_keycenter=c#5
sample=Alto_trill_wholetone_MF_C#5.opus
</region>

<region>
hikey=c#6
hivel=127
lokey=c6
loop_end=280712
loop_mode=loop_continuous
loop_start=80320
loop_xfade=23990
lovel=1
lpc=TbxhQVIkD8H49jHAJ9y/PisPfUAn+xxAxS6vP+Gfub/JdOE/DM/vP7J4u0DJTfK/dBiBP6XhRz/7LGA/kk6JQOjOqT9N8K6+Au1QP4MVyD7Grl2+DD8ev05i1T9DDlBA
lpc_rms=-22.24
offset=3560
pitch_keycenter=C#6
sample=Alto_trill_wholetone_MF_C#6.opus
</region>

<region>
hikey=d#4
hivel=127
lokey=d4
loop_end=278972
loop_mode=loop_continuous
loop_start=79822
loop_xfade=23841
lovel=1
lpc=qKsHQuc2ncIi6VpCkiyCwRpcr0EKmqDBy4X+QLk6hMBWVlzAc/Z/QB26lkCtEAnBeIzxQMa0uMAT9X9ATTcVPbsYhcDoq2JADNNJwIf5FUCem3RAS5krwB45hMBvJjpA
lpc_rms=-23.74
offset=815
pitch_keycenter=d#4
sample=Alto_trill_wholetone_MF_D#4.opus
</region>

<region>
hikey=d#5
hivel=127
lokey=d5
loop_end=283171
loop_mode=loop_continuous
loop_start=81023
loop_xfade=24200
lovel=1
lpc=PgATQgZ2dcIqn+JB4jp8wZYJ+0HrVrDB+Uc0QbEppcDaZHzAl2DpQEoGOkAxZRTBT53xQGkFAMEXkm1AxJ3JQH0tlMAU+ANArIo9v+HVkUAO6gnB07uYQMqPlL+xchNA
lpc_rms=-17.47
offset=1460
pitch_keycenter=d#5
sample=Alto_trill_wholetone_MF_D#5.opus
</region>

<region>
hikey=f4
hivel=127
lokey=e4
loop_end=278916
loop_mode=loop_continuous
loop_start=79806
loop_xfade=23836
lovel=1
lpc=HfM4QpoU4sIYe7lCUJUvwgwxNUIZXCfCoXLVQQUQhcHL1YO9RKQIQYSMDD+m+V3BHkycQRVPnsFl8DBBbqmiQH0REsH5qLdAcKBnwJUg0T4zfBi/t5KgQGfF3MDtGk5A
lpc_rms=-22.05
offset=1603
pitch_keycenter=f4
sample=Alto_trill_wholetone_MF_F4.opus
</region>

<region>
hikey=f5
hivel=127
lokey=e5
loop_end=280265
loop_mode=loop_continuous
loop_start=80192
loop_xfade=23952
lovel=1
lpc=L+PoQQWTQ8K9DLxBR/RAwUDirEGR5YTB9nJnQfOzScGvu6VAmmZtwIT4DkHG10DBOwItQS3I98BDkblAzERFQFXunsAB/vi/v8MEQFjdlz97MQ2/0h4UQH6rt793b/Q9
lpc_rms=-19.62
offset=1985
pitch_keycenter=f5
sample=Alto_trill_wholetone_MF_F5.opus
</region>

<region>
hivel=127
key=g3
loop_end=278169
loop_mode=loop_continuous
loop_start=79592
loop_xfade=23773
lovel=1
lpc=EVMkQnopxcISm5ZCJEjDwbRolkFg/4jBsAwPQWJPFMFFQOlAq2w6QOseh8B6pE3AZOrFQN7P/MAc+CFA2s/NQEFQ98By3nNAjJADvwWgur4TOxhAUmwMwDwWjr5Tjuk+
lpc_rms=-30.40
sample=Alto_trill_wholetone_MF_G3.opus
</region>

<region>
hikey=g4
hivel=127
lokey=f#4
loop_end=285298
loop_mode=loop_continuous
loop_start=81632
loop_xfade=24382
lovel=1
lpc=o9NZQs0kA8NdjNRCRiNQwtdpVUL0sDXC1oP0QQkWtsF1jYy/YXSMQYet+cBi9jDBub2xQevDqcGxsKlAIdNJQUChacECCd1A0Ut4wLBjIkFFoe7ANKo/QCDGOMHyjw9B
lpc_rms=-21.45
offset=153
pitch_keycenter=g4
sample=Alto_trill_wholetone_MF_G4.opus
</region>

<region>
hikey=g5
hivel=127
lokey=f#5
loop_end=279904
loop_mode=loop_continuous
loop_start=80089
loop_xfade=23921
lovel=1
lpc=pFXvQTTpMcIK3DVBE9OEv6XkfkHjTiLBY2jIQAC1qsAyxom/GNrjP3oRvUBHnPnAJXG+QNajFsAhPBU+Lq6aQJvZscBu8YI/CzJNP5fNhj8xx26+LFTCP0yB0L+4B+s+
lpc_rms=-19.01
offset=1238
pitch_keycenter=g5
sample=Alto_trill_wholetone_MF_G5.opus
</region>
</group>

<group>
group_label=Group_91-127
lpc_hicc1=127
lpc_locc1=85

<region>
hikey=a3
hivel=127
lokey=g#3
loop_end=285556
loop_mode=loop_continuous
loop_start=81706
loop_xfade=24404
lovel=1
lpc=nMcCQmHnmsIRYX9CitQAwqjo0kGaxZ7BxeGOQYOgocGPOlBB76NxwC7+NEDw3BfBXnJ/QRkvdcG4xY9Ak8LQQDkZysCSKeM/7NHsP4oJWsA9/zJAPuwQwNiGCz956Q4/
lpc_rms=-24.53
offset=1111
pitch_keycenter=a3
sample=Alto_trill_wholetone_FF_A3.opus
</region>

<region>
hikey=a4
hivel=127
lokey=g#4
loop_end=282380
loop_mode=loop_continuous
loop_start=80797
loop_xfade=24132
lovel=1
lpc=l47fQUJLd8KSJEJCgingwQ6s4kFdFMLBFMmrQb1fn8FUgCJBpC8Hv6XX5D+uZQ/BN0w+QRnHMsHwHZdALc7EQKhD/cA6F05AXRADv2li0z++nHXAwt6tQIJm7sA0aJJA
lpc_rms=-23.01
offset=1880
pitch_keycenter=a4
sample=Alto_trill_wholetone_FF_A4.opus
</region>

<region>
hikey=a5
hivel=127
lokey=g#5
loop_end=282493
loop_mode=loop_continuous
loop_start=80830
loop_xfade=24142
lovel=1
lpc=DdBVQQlZl8HY+tFAfY+6v2mXv0BHJ1bArr10P1guAb9x6ZU/6gKeP461oD+cx43ApUthQDogJsAlPFhAuM/NP9+mN8DSvzo/uUKGPwa1Pj/q2pS+WNTPPlt3QMAPdiJA
lpc_rms=-16.57
offset=1202
pitch_keycenter=a5
sample=Alto_trill_wholetone_FF_A5.opus
</region>

<region>
hikey=b3
hivel=127
lokey=a#3
loop_end=285848
loop_mode=loop_continuous
loop_start=81789
loop_xfade=24429
lovel=1
lpc=azncQUJ2gcKQq1BCr9Lnwdr0B0IOZwHC6d+xQWGFWcHd0B5A0XHNQLelrsAmEBnAXiXVQKnC3cDZahlA71QwQBfGhr/zLoo/r095wLq3dkCV3oTAofivQLyglsDjrd0/
lpc_rms=-23.63
offset=510
pitch_keycenter=b3
sample=Alto_trill_wholetone_FF_B3.opus
</region>

<region>
hikey=b4
hivel=127
lokey=a#4
loop_end=282427
loop_mode=loop_continuous
loop_start=80811
loop_xfade=24136
lovel=1
lpc=2if7QT3ok8L0vHlCzS8OwpUpDkIUeOvBonOTQftrOsHkApc//D/xQABcrsAZ8pnAY5BKQQBHcsEuyvxAX9pnQC5jl8Cd+D1AT/wswEug0j/kbFvAbkACQVOZFsGVdZFA
lpc_rms=-20.54
offset=1074
pitch_keycenter=b4
sample=Alto_trill_wholetone_FF_B4.opus
</region>

<region>
hikey=b5
hivel=127
lokey=a#5
loop_end=283111
loop_mode=loop_continuous
loop_start=81006
loop_xfade=24195
lovel=1
lpc=dzcmQSodK8GA29c++3qjPfIPbECt+cm+UoJoPgQvSD3d4ew9SbQWQDFAcD+4hkLA572BP28FkD8Vw6c/IXMgP0y9mr813I8/cUu4PwVGOT+JNybAoW9vPry9Rr5Zyvk/
lpc_rms=-16.33
offset=745
pitch_keycenter=b5
sample=Alto_trill_wholetone_FF_B5.opus
</region>

<region>
hikey=c#4
hivel=127
lokey=c4
loop_end=283351
loop_mode=loop_continuous
loop_start=81075
loop_xfade=24215
lovel=1
lpc=q6DwQQYPlsLJoohClj8qwh+UIEKVdQDCY3fOQUl5x8FFtxhB9oQtQEaOtj/oLgPBGG9XQTr4hcEq7RRB95pGQDfr5sCeEadAKfe9v68oHr9hCJW9v2KJPyrBL8B6EQFA
lpc_rms=-24.19
offset=1447
pitch_keycenter=c#4
sample=Alto_trill_wholetone_FF_C#4.opus
</region>

<region>
hikey=c#5
hivel=127
lokey=c5
loop_end=282791
loop_mode=loop_continuous
loop_start=80915
loop_xfade=24168
lovel=1
lpc=FJZ1QZhZ5MEHU5BBrU4rwaAUU0FR2ybBNiccQQzyDsE48pVAZeesPkB8bz4az4nAnZagQNy4iMBxaUs/F2CDQOLel8BAaX5AZdXEv3RxREB96ITAK+k3QKdmpcA6IIpA
lpc_rms=-23.34
offset=1012
pitch_keycenter=c#5
sample=Alto_trill_wholetone_FF_C#5.opus
</region>

<region>
hikey=c#6
hivel=127
lokey=c6
loop_end=285348
loop_mode=loop_continuous
loop_start=81646
loop_xfade=24386
lovel=1
lpc=lBFXQaXRLMEieBVARZbbPlEfLECNM0W/1YjqP48jrz/FDsU/lHYRQE+KhEAjowLA722FQFjA7D6PVvc+pq1XQLgnBD8gRJY+tq33PyWZdT95q46/DQImv4ILIECslTNA
lpc_rms=-17.02
offset=1726
pitch_keycenter=C#6
sample=Alto_trill_wholetone_FF_C#6.opus
</region>

<region>
hikey=d#4
hivel=127
lokey=d4
loop_end=295928
loop_mode=loop_continuous
loop_start=84674
loop_xfade=25290
lovel=1
lpc=t+EQQid1qcKkU4FCuEDvwbbKGELyvQjCHuVoQZAUv8C1XGa/DKz0QPJXocD9xiHBBfynQTBUgsFfpvFAs3FzPnL9o7/QS9W/8vMKQKO8JD5lv63ApE2ZQClDyz1BGiW/
lpc_rms=-18.40
offset=14684
pitch_keycenter=d#4
sample=Alto_trill_wholetone_FF_D#4.opus
</region>

<region>
hikey=d#5
hivel=127
lokey=d5
loop_end=283862
loop_mode=loop_continuous
loop_start=81221
loop_xfade=24259
lovel=1
lpc=eLMTQjI9icITdBpC0sFpwZfewUFRzZLBkC0qQXzCJMFobz5AASeXQI1DTUAOPmPBLmFSQaDWG8EOYr9AfLLMQKkd4sDzan1AgqlIwGM3BED+QqLAKGyqQJFnir9XyYw/
lpc_rms=-11.75
offset=988
pitch_keycenter=d#5
sample=Alto_trill_wholetone_FF_D#5.opus
</region>

<region>
hikey=f4
hivel=127
lokey=e4
loop_end=283842
loop_mode=loop_continuous
loop_start=81215
loop_xfade=24257
lovel=1
lpc=sQELQib6psI13IVCub3/wXlUF0LAnh3CzYPZQayJkcFgX8ZAqxVYQOnfAT/urkHB2OKGQWKSZMFbr/FAb48VQGMC1cB31b9AQs4xwBI2CEDqYvbAYlcPQczTj8CXG5U/
lpc_rms=-17.64
offset=733
pitch_keycenter=f4
sample=Alto_trill_wholetone_FF_F4.opus
</region>

<region>
hikey=f5
hivel=127
lokey=e5
loop_end=284472
loop_mode=loop_continuous
loop_start=81396
loop_xfade=24311
lovel=1
lpc=B5D5QRrqYcKXegtCJyN2wS2ajEGJYWvBIkhFQdBSU8A5TLXAaQOoQFXpkj/pywDBzjg4QXEa4sCD4eE/zQZuQKU5WMCFnQZA7Tpjvzs2Xr92cqc/BeMRQD6t2L+Lbpg/
lpc_rms=-11.81
offset=1033
pitch_keycenter=f5
sample=Alto_trill_wholetone_FF_F5.opus
</region>

<region>
hivel=127
key=g3
loop_end=285459
loop_mode=loop_continuous
loop_start=81678
loop_xfade=24396
lovel=1
lpc=2UYcQh3Bv8LbC6VCATAfwpwv+kFMPeHBgGKBQTyuOsADKhHB+YFzQY3t7sAuetvAcMJaQV4oTsE6DmJACL67QObOlsDApr4/KerHv+vOP0DDKBDAx4UwP1gMpL/KImU/
lpc_rms=-26.73
sample=Alto_trill_wholetone_FF_G3.opus
</region>

<region>
hikey=g4
hivel=127
lokey=f#4
loop_end=285779
loop_mode=loop_continuous
loop_start=81770
loop_xfade=24423
lovel=1
lpc=W64OQsR6tMLn6ahCtVZUwrP9SUI31jLCLU8DQnOUvME1eZ1A454QQQYiM8CYXBPB6ctcQQ5VgsFvl3hBOI3KwBz1EsBzq+hAZgPowGXi6z9zyO6/R1wJQUJfMcHc1KJA
lpc_rms=-17.94
offset=495
pitch_keycenter=g4
sample=Alto_trill_wholetone_FF_G4.opus
</region>

<region>
hikey=g5
hivel=127
lokey=f#5
loop_end=283264
loop_mode=loop_continuous
loop_start=81050
loop_xfade=24208
lovel=1
lpc=mu7JQcuVIsKR1YZB95JzwP8KUEEqUCnBGDTDQFHunb4mMuzAXrfKQD25WEAbPtDAJ5DEQB4+uMAsHRxACkQqQPYwT78lsF89jPBMv7EGSj8JBK6/2NltQB88377Ykb6/
lpc_rms=-12.26
offset=1341
pitch_keycenter=g5
sample=Alto_trill_wholetone_FF_G5.opus
</region>
</group>